<svg xmlns="http://www.w3.org/2000/svg" viewBox="0 0 48 48" fill="none">
  <defs>
    <linearGradient id="bg" x1="0" y1="0" x2="48" y2="48" gradientUnits="userSpaceOnUse">
      <stop stop-color="#221D16"/>
      <stop offset="1" stop-color="#14110D"/>
    </linearGradient>
    <linearGradient id="gold" x1="10" y1="10" x2="38" y2="40" gradientUnits="userSpaceOnUse">
      <stop stop-color="#F4D387"/>
      <stop offset="0.5" stop-color="#E0A93B"/>
      <stop offset="1" stop-color="#C6902B"/>
    </linearGradient>
  </defs>
  <rect x="1" y="1" width="46" height="46" rx="12" fill="url(#bg)"/>
  <rect x="1.5" y="1.5" width="45" height="45" rx="11.5" fill="none" stroke="#E0A93B" stroke-opacity="0.28"/>
  <path d="M16 11h13a3 3 0 0 1 3 3v20.5a1 1 0 0 1-1.5.87L28 34l-2.5 1.4a1 1 0 0 1-1 0L22 34l-2.5 1.4a1 1 0 0 1-1 0L16 34l-2.5 1.37A1 1 0 0 1 12 34.5V15a4 4 0 0 1 4-4Z" fill="url(#gold)"/>
  <path d="M18 18h11M18 22.5h11M18 27h7" stroke="#241A0C" stroke-width="2" stroke-linecap="round" stroke-opacity="0.72"/>
  <path d="M33 19.5l-5.5 8h4L30 34l6-8.5h-4l1.5-6Z" fill="#0E5A4A" stroke="#14110D" stroke-width="0.6" stroke-linejoin="round"/>
</svg>
